<?xml version="1.0" encoding="utf-8"?>
<svg viewBox="0 0 500 500" xmlns="http://www.w3.org/2000/svg">
  <defs>
    <style class="darkreader darkreader--sync" media="screen"/>
  </defs>
  <path d="M 120.61 344.09 L 120.61 160.99 L 133.54 154.88 L 210.94 154.88 L 210.94 156.1 L 201.05 177.1 L 145.02 177.1 L 145.02 235.94 L 210.94 235.94 L 210.94 237.16 L 201.05 258.15 L 145.02 258.15 L 145.02 333.11 L 121.83 344.09 Z M 239.68 344.09 L 239.68 232.4 Q 239.68 216.04 262.51 207.25 Q 274.84 202.49 290.34 202.49 L 306.82 202.49 L 306.82 203.71 L 297.05 224.46 L 290.34 224.46 Q 279.35 224.46 271.72 227.51 Q 264.09 230.57 264.09 236.67 L 264.09 333.11 L 240.9 344.09 Z" transform="matrix(1.231998, 0, 0, 1.290034, -3.104391, -72.38109)" style="fill: rgb(255, 255, 255);"/>
</svg>