<?xml version="1.0" encoding="utf-8"?>
<svg viewBox="0 0 500 500" xmlns="http://www.w3.org/2000/svg">
  <defs>
    <style class="darkreader darkreader--sync" media="screen"/>
  </defs>
  <path d="M 243.9 272.07 L 243.9 301.37 Q 243.9 323.71 216.19 335.18 Q 200.68 341.65 182.25 341.65 Q 163.82 341.65 148.32 335.18 Q 120.61 323.71 120.61 301.37 L 120.61 192.72 Q 120.61 170.39 148.32 158.91 Q 163.82 152.44 182.25 152.44 Q 200.68 152.44 216.19 158.91 Q 243.9 170.39 243.9 192.72 L 243.9 211.04 L 220.7 222.02 L 219.48 222.02 L 219.48 192.72 Q 219.48 184.42 204.71 178.44 Q 194.46 174.41 182.25 174.41 Q 170.04 174.41 159.79 178.44 Q 145.02 184.3 145.02 192.72 L 145.02 301.37 Q 145.02 309.67 159.79 315.65 Q 170.04 319.68 182.25 319.68 Q 194.46 319.68 204.71 315.65 Q 219.48 309.79 219.48 301.37 L 219.48 283.06 L 242.68 272.07 Z M 281.41 344.09 L 281.41 232.4 Q 281.41 216.04 304.23 207.25 Q 316.56 202.49 332.07 202.49 Q 347.57 202.49 359.9 207.25 Q 382.73 216.04 382.73 232.4 L 382.73 333.11 L 359.53 344.09 L 358.31 344.09 L 358.31 236.67 Q 358.31 230.57 350.68 227.51 Q 343.05 224.46 332.07 224.46 Q 321.08 224.46 313.45 227.51 Q 305.82 230.57 305.82 236.67 L 305.82 333.11 L 282.63 344.09 Z" transform="matrix(1.231998, 0, 0, 1.290034, -59.500718, -72.38109)" style="fill: rgb(255, 255, 255);"/>
</svg>