<?xml version="1.0" encoding="utf-8"?>
<svg viewBox="0 0 500 500" xmlns="http://www.w3.org/2000/svg">
  <defs>
    <style class="darkreader darkreader--sync" media="screen"/>
  </defs>
  <path d="M 105.96 283.06 L 129.15 272.07 L 130.37 272.07 L 130.37 301.37 Q 130.37 309.79 145.14 315.65 Q 155.4 319.68 166.99 319.68 Q 177.37 319.68 187.62 315.65 Q 202.39 309.79 202.39 301.37 L 202.39 177.1 L 132.45 177.1 L 132.45 175.88 L 142.33 154.88 L 226.81 154.88 L 226.81 301.37 Q 226.81 323.71 199.1 335.18 Q 183.59 341.65 166.99 341.65 Q 149.17 341.65 133.67 335.18 Q 105.96 323.71 105.96 301.37 Z M 360.27 333.11 L 337.08 344.09 L 335.86 344.09 L 335.86 337.5 Q 324.14 341.65 310.83 341.65 Q 296.55 341.65 284.22 336.89 Q 261.39 327.86 261.39 311.74 L 261.39 278.78 Q 261.39 262.43 284.22 253.64 Q 296.55 248.88 310.83 248.88 Q 324.26 248.88 335.86 253.03 L 335.86 236.67 Q 335.86 230.57 328.23 227.51 Q 320.6 224.46 309.61 224.46 L 279.95 224.46 L 279.95 223.24 L 289.72 202.49 L 309.61 202.49 Q 325.12 202.49 337.44 207.25 Q 360.27 216.04 360.27 232.4 Z M 285.81 307.47 Q 285.81 313.57 293.44 316.63 Q 301.07 319.68 310.83 319.68 Q 320.6 319.68 328.23 316.63 Q 335.86 313.57 335.86 307.47 L 335.86 283.06 Q 335.86 276.95 328.23 273.9 Q 320.6 270.85 310.83 270.85 Q 301.07 270.85 293.38 273.9 Q 285.81 276.95 285.81 283.06 Z" transform="matrix(1.231998, 0, 0, 1.290034, -43.713147, -72.38109)" style="fill: rgb(255, 255, 255);"/>
</svg>