<?xml version="1.0" encoding="utf-8"?>
<svg viewBox="0 0 500 500" xmlns="http://www.w3.org/2000/svg">
  <defs>
    <style class="darkreader darkreader--sync" media="screen"/>
  </defs>
  <path d="M 120.61 344.09 L 120.61 160.99 L 143.8 150 L 145.02 150 L 145.02 241.92 L 211.3 150 L 212.52 150 L 234.01 160.13 L 179.57 232.64 Q 196.53 232.64 212.52 239.36 Q 240.23 250.95 240.23 273.17 L 240.23 333.11 L 217.04 344.09 L 215.82 344.09 L 215.82 273.17 Q 215.82 264.75 201.05 258.89 Q 189.45 254.61 179.57 254.61 Q 169.56 254.61 159.91 258.4 Q 145.02 264.14 145.02 273.17 L 145.02 333.11 L 121.83 344.09 Z M 298.87 307.47 Q 298.87 313.57 306.5 316.63 Q 314.13 319.68 325.11 319.68 Q 336.1 319.68 343.73 316.63 Q 351.36 313.57 351.36 307.47 L 351.36 236.67 Q 351.36 230.57 343.73 227.51 Q 336.1 224.46 325.11 224.46 Q 314.13 224.46 306.5 227.51 Q 298.87 230.57 298.87 236.67 Z M 274.45 311.74 L 274.45 232.4 Q 274.45 216.28 297.28 207.25 Q 309.61 202.49 325.11 202.49 Q 340.61 202.49 352.94 207.25 Q 375.77 216.28 375.77 232.4 L 375.77 311.74 Q 375.77 327.86 352.94 336.89 Q 340.61 341.65 325.11 341.65 Q 309.61 341.65 297.28 336.89 Q 274.45 327.86 274.45 311.74 Z" transform="matrix(1.231998, 0, 0, 1.290034, -55.742028, -72.38109)" style="fill: rgb(255, 255, 255);"/>
</svg>