<?xml version="1.0" encoding="utf-8"?>
<svg viewBox="0 0 500 500" xmlns="http://www.w3.org/2000/svg">
  <defs>
    <style class="darkreader darkreader--sync" media="screen"/>
  </defs>
  <path d="M 137.878 339.209 L 137.878 160.986 L 150.818 154.883 L 228.21 154.883 L 228.21 156.104 L 218.322 177.1 L 162.292 177.1 L 162.292 235.938 L 228.21 235.938 L 228.21 237.158 L 218.322 258.154 L 162.292 258.154 L 162.292 316.992 L 248.596 316.992 L 248.596 318.213 L 238.708 339.209 Z M 266.9 344.092 L 266.9 232.398 Q 266.9 216.04 289.728 207.251 Q 302.057 202.49 317.56 202.49 Q 333.063 202.49 345.392 207.251 Q 368.219 216.04 368.219 232.398 L 368.219 333.106 L 345.025 344.092 L 343.805 344.092 L 343.805 236.67 Q 343.805 230.566 336.175 227.515 Q 328.546 224.463 317.56 224.463 Q 306.573 224.463 298.944 227.515 Q 291.315 230.566 291.315 236.67 L 291.315 333.106 L 268.121 344.092 Z" transform="matrix(1.3971480131149292, 0, 0, 1.3178670406341553, -99.29076595922591, -79.57263352230129)" style="fill: rgb(51, 51, 51);"/>
</svg>