<?xml version="1.0" encoding="utf-8"?>
<svg viewBox="0 0 500 500" xmlns="http://www.w3.org/2000/svg">
  <defs>
    <style class="darkreader darkreader--sync" media="screen"/>
  </defs>
  <path d="M 145.02 317.24 L 179.81 317.24 Q 192.02 317.24 202.27 313.21 Q 217.04 307.35 217.04 298.93 L 217.04 195.17 Q 217.04 186.74 202.27 180.88 Q 192.14 176.86 179.81 176.86 L 145.02 176.86 Z M 120.61 339.21 L 120.61 160.99 L 133.54 154.88 L 179.81 154.88 Q 198.24 154.88 213.74 161.35 Q 241.45 172.83 241.45 195.17 L 241.45 298.93 Q 241.45 321.26 213.74 332.74 Q 198.24 339.21 179.81 339.21 Z M 382.73 285.13 L 382.73 311.74 Q 382.73 327.86 359.9 336.89 Q 347.57 341.65 332.07 341.65 Q 316.56 341.65 304.23 336.89 Q 281.41 327.86 281.41 311.74 L 281.41 232.4 Q 281.41 216.28 304.23 207.25 Q 316.56 202.49 332.07 202.49 Q 347.57 202.49 359.9 207.25 Q 382.73 216.28 382.73 232.4 L 382.73 248.02 L 305.82 307.47 Q 305.82 313.57 313.45 316.63 Q 321.08 319.68 332.07 319.68 Q 343.05 319.68 350.68 316.63 Q 358.31 313.57 358.31 307.47 L 358.31 296.12 L 381.5 285.13 Z M 305.82 281.71 L 358.31 239.48 L 358.31 236.67 Q 358.31 230.57 350.68 227.51 Q 343.05 224.46 332.07 224.46 Q 321.08 224.46 313.45 227.51 Q 305.82 230.57 305.82 236.67 Z" transform="matrix(1.231998, 0, 0, 1.290034, -58.00044, -72.38109)" style="fill: rgb(255, 255, 255);"/>
</svg>