<?xml version="1.0" standalone="no"?><!DOCTYPE svg PUBLIC "-//W3C//DTD SVG 1.1//EN" "http://www.w3.org/Graphics/SVG/1.1/DTD/svg11.dtd"><svg t="1701241226619" class="icon" viewBox="0 0 1024 1024" version="1.1" xmlns="http://www.w3.org/2000/svg" p-id="1760" xmlns:xlink="http://www.w3.org/1999/xlink" width="200" height="200"><path d="M549.12 643.2l-108.373333-107.093333 1.28-1.28c74.24-82.773333 127.146667-177.92 158.293333-278.613333l125.013333 0 0-85.546667-298.666667 0 0-85.333333-85.333333 0 0 85.333333-298.666667 0 0 84.906667 476.586667 0c-28.8 82.346667-73.813333 160.426667-135.253333 228.693333-39.68-44.16-72.533333-92.16-98.56-142.933333l-85.333333 0c31.146667 69.546667 73.813333 135.253333 127.146667 194.56l-216.96 214.4 60.373333 60.373333 213.333333-213.333333 132.693333 132.693333 32.426667-86.826667zM789.333333 426.666667l-85.333333 0-192 512 85.333333 0 48-128 202.666667 0 48 128 85.333333 0-192-512zM677.333333 725.333333l69.333333-184.96 69.333333 184.96-138.666667 0z" fill="#2c2c2c" p-id="1761"></path></svg>